<svg width="460" height="40" viewBox="0 0 600 53" fill="#0a0a0a" xmlns="http://www.w3.org/2000/svg"><g clip-path="url(#clip0_plane)"><path d="M217.077 51.4468H210.972L210.98 31.4317C210.717 27.7545 208.786 25.1545 205.03 24.6199C198.587 23.7006 194.663 27.8828 194.21 34.0258L194.218 51.4468H188.041V20.2543H192.158L194.255 26.8846H194.6C195.825 22.8701 198.684 20.4831 202.898 19.5757C210.126 18.0231 216.643 22.2724 217.079 29.8239V51.4468H217.077Z" fill="#0a0a0a"></path><path d="M163.812 19.7315C158.03 20.9566 153.67 25.2354 153.222 31.264H159.395C159.669 28.3484 161.561 25.9969 164.267 24.9553C167.418 23.7401 172.805 23.8881 175.178 26.6005C176.774 28.4253 177.305 31.5816 175.212 33.2249C172.675 35.2173 166.39 34.6117 163.214 34.7636C158.631 34.9826 154.141 36.8429 153.183 41.7727C151.1 52.5042 165.035 54.9267 171.902 49.8963C174.095 48.2885 175.672 45.8443 176.261 43.1792H176.577L178.788 51.4508H182.61V29.964C182.517 20.3214 171.462 18.108 163.81 19.7315H163.812ZM174.847 41.2637C172.484 45.649 166.958 49.0441 162.218 47.3318C158.44 45.9686 158.268 40.4095 161.973 38.9181C165.613 37.4524 173.732 38.9694 176.368 34.949C176.275 37.0855 175.906 39.2989 174.849 41.2637H174.847Z" fill="#0a0a0a"></path><path d="M113.082 35.5652V51.4475H106.611V9.00063H124.863C125.007 8.99274 125.141 9.06178 125.283 9.06967C133.732 9.53129 139.297 13.601 139.104 22.6025C138.928 30.7991 132.663 35.2199 124.934 35.5671H113.082V35.5652ZM113.082 14.4828V30.2941H124.088C129.595 29.8956 133.071 27.1022 132.491 21.265C131.967 15.9781 127.802 14.6544 123.107 14.4788C119.795 14.3546 116.402 14.5795 113.082 14.4808V14.4828Z" fill="#0a0a0a"></path><path d="M148.647 9H142.529V51.4468H148.647V9Z" fill="#0a0a0a"></path><path d="M245.872 42.418C244.911 44.4953 243.138 46.1603 240.934 46.8981C238.368 47.7562 234.479 47.5431 232.083 46.2569C228.67 44.4263 227.145 40.6485 227.137 36.8984H251.891C252.194 33.6908 251.902 30.3648 250.496 27.4333C247.083 20.3177 238.859 17.7236 231.513 19.9429C222.868 22.5568 220.165 31.4162 221.462 39.6543C222.86 48.5611 230.197 52.976 238.958 52.3585C244.884 51.9423 250.271 48.1192 251.788 42.4161H245.874L245.872 42.418ZM227.208 32.4381C227.778 26.2457 233.347 23.2018 239.163 24.4269C243.361 25.3107 245.75 28.9523 245.842 33.1068H227.145C227.145 33.1068 227.19 32.6255 227.208 32.4401V32.4381Z" fill="#0a0a0a"></path><path d="M44.3223 2.9264C44.3223 0.754665 46.6083 -0.65811 48.5508 0.313121L80.4551 16.2653C82.9294 17.5024 84.4922 20.0321 84.4922 22.7985V48.2487C84.4922 50.4204 82.2071 51.833 80.2646 50.8619L62.3281 41.8932V22.7975C62.3281 20.0311 60.7653 17.5015 58.291 16.2643L44.3223 9.27992V2.9264ZM0 2.92543C8.01645e-05 0.753753 2.28609 -0.659069 4.22852 0.312144L22.1582 9.27699V28.3766C22.1582 31.1428 23.7213 33.6716 26.1953 34.9088L40.1699 41.8952V48.2487C40.1697 50.4202 37.8847 51.832 35.9424 50.861L4.03711 34.9088C1.56305 33.6716 0 31.1428 0 28.3766V2.92543ZM22.1582 2.92543C22.1583 0.753753 24.4443 -0.659069 26.3867 0.312144L44.3223 9.27992V28.3776C44.3223 31.1439 45.8861 33.6727 48.3604 34.9098L62.3281 41.8932V48.2487C62.3279 50.4202 60.0429 51.832 58.1006 50.861L40.1699 41.8952V22.7975C40.1699 20.0311 38.6071 17.5015 36.1328 16.2643L22.1582 9.27699V2.92543Z" fill="#0a0a0a"></path></g><rect x="265" y="6" width="1.5" height="41" rx="0.75" fill="#0a0a0a" opacity="0.3"></rect><g transform="translate(275, -9) scale(2.2)"><polyline points="11,8 4,16 11,24" stroke="#0a0a0a" stroke-width="2.5" stroke-linecap="round" stroke-linejoin="round" fill="none"></polyline><polyline points="21,8 28,16 21,24" stroke="#0a0a0a" stroke-width="2.5" stroke-linecap="round" stroke-linejoin="round" fill="none"></polyline><path d="M16 16 L16 11 A5 5 0 0 1 21 16" fill="#0a0a0a" opacity="0.2" stroke="none"></path><path d="M18 16 A2.5 2.5 0 0 0 16 13.5" stroke="#0a0a0a" stroke-width="1.2" opacity="0.5" fill="none" stroke-linecap="round"></path><path d="M20 16 A4.5 4.5 0 0 0 16 11.5" stroke="#0a0a0a" stroke-width="1" opacity="0.3" fill="none" stroke-linecap="round"></path><circle cx="16" cy="16" r="4.5" stroke="#0a0a0a" stroke-width="1.5" opacity="0.25" fill="none"></circle><circle cx="16" cy="16" r="2" fill="#0a0a0a" stroke="none"></circle><g><path d="M66 0V700H198V0Z" fill="#0a0a0a" transform="translate(40.0000,25.6800) scale(0.020000,-0.020000)"></path><path d="M70 0V496H194V431H212Q224 457 257.0 480.5Q290 504 357 504Q415 504 458.5 477.5Q502 451 526.0 404.5Q550 358 550 296V0H424V286Q424 342 396.5 370.0Q369 398 318 398Q260 398 228.0 359.5Q196 321 196 252V0Z" fill="#0a0a0a" transform="translate(45.2800,25.6800) scale(0.020000,-0.020000)"></path><path d="M152 0V392H26V496H152V588Q152 639 182.5 669.5Q213 700 262 700H392V596H306Q278 596 278 566V496H408V392H278V0Z" fill="#0a0a0a" transform="translate(57.6000,25.6800) scale(0.020000,-0.020000)"></path><path d="M70 0V496H194V440H212Q223 470 248.5 484.0Q274 498 308 498H368V386H306Q258 386 227.0 360.5Q196 335 196 282V0Z" fill="#0a0a0a" transform="translate(66.3200,25.6800) scale(0.020000,-0.020000)"></path><path d="M224 -14Q171 -14 129.0 4.5Q87 23 62.5 58.5Q38 94 38 145Q38 222 92.0 261.0Q146 300 230 300H366V328Q366 363 344.0 385.5Q322 408 274 408Q227 408 204.0 386.5Q181 365 174 331L58 370Q70 408 96.5 439.5Q123 471 167.5 490.5Q212 510 276 510Q374 510 431.0 461.0Q488 412 488 319V134Q488 104 516 104H556V0H472Q435 0 411.0 18.0Q387 36 387 66V67H368Q364 55 350.0 35.5Q336 16 306.0 1.0Q276 -14 224 -14ZM246 88Q299 88 332.5 117.5Q366 147 366 196V206H239Q204 206 184.0 191.0Q164 176 164 149Q164 122 185.0 105.0Q206 88 246 88Z" fill="#0a0a0a" transform="translate(74.2400,25.6800) scale(0.020000,-0.020000)"></path><g transform="translate(0,25.6800) scale(1,0.88) translate(0,-25.6800)"><path d="M163 0 40 700H105L217 38H229L374 700H492L637 38H649L761 700H826L703 0H584L439 662H427L282 0Z" fill="#0a0a0a" transform="translate(85.8000,25.6800) scale(0.020000,-0.020000)"></path><path d="M237 -14Q186 -14 144.5 3.5Q103 21 79.0 55.0Q55 89 55 137Q55 186 79.0 218.0Q103 250 144.0 266.0Q185 282 235 282H413V321Q413 380 379.0 413.0Q345 446 280 446Q216 446 178.5 414.5Q141 383 128 330L70 347Q87 411 138.0 455.5Q189 500 280 500Q372 500 422.5 452.0Q473 404 473 318V82Q473 52 501 52H548V0H484Q453 0 435.0 18.5Q417 37 417 69V76H407Q394 54 373.5 33.0Q353 12 320.0 -1.0Q287 -14 237 -14ZM241 40Q318 40 365.5 86.5Q413 133 413 218V230H236Q184 230 149.5 207.5Q115 185 115 138Q115 91 150.5 65.5Q186 40 241 40Z" fill="#0a0a0a" transform="translate(103.1200,25.6800) scale(0.020000,-0.020000)"></path><path d="M264 0Q225 0 205.5 20.0Q186 40 186 76V432H30V486H186V668H246V486H416V432H246V84Q246 54 276 54H390V0Z" fill="#0a0a0a" transform="translate(114.6000,25.6800) scale(0.020000,-0.020000)"></path><path d="M310 -14Q239 -14 183.5 16.5Q128 47 96.0 104.0Q64 161 64 238V248Q64 326 96.0 382.5Q128 439 183.5 469.5Q239 500 310 500Q380 500 428.5 473.5Q477 447 504.5 404.5Q532 362 539 315L480 303Q475 342 455.0 374.5Q435 407 399.0 426.5Q363 446 310 446Q257 446 215.0 421.5Q173 397 148.5 352.5Q124 308 124 247V239Q124 178 148.5 133.5Q173 89 215.0 64.5Q257 40 310 40Q390 40 432.0 81.5Q474 123 484 183L543 171Q534 124 505.5 81.5Q477 39 428.5 12.5Q380 -14 310 -14Z" fill="#0a0a0a" transform="translate(123.8400,25.6800) scale(0.020000,-0.020000)"></path><path d="M88 0V700H148V401H160Q172 425 193.5 446.5Q215 468 249.5 481.5Q284 495 336 495Q389 495 433.0 473.0Q477 451 503.5 407.0Q530 363 530 296V0H470V292Q470 372 430.0 406.5Q390 441 323 441Q248 441 198.0 392.0Q148 343 148 243V0Z" fill="#0a0a0a" transform="translate(135.9000,25.6800) scale(0.020000,-0.020000)"></path></g><rect x="85.8" y="10.8" width="60.7" height="1.2" rx="0.6" ry="0.6" fill="#0a0a0a" opacity="0.4"></rect></g></g><defs><clipPath id="clip0_plane"><rect width="252" height="53" fill="white"></rect></clipPath></defs></svg>
