<svg xmlns="http://www.w3.org/2000/svg" viewBox="0 0 845.0 298.6" width="845.0" height="298.6">
  <title>Plane Plus lockup — horizontal dark</title>
  <svg x="35.0" y="75.0" width="122.1" height="140.0" viewBox="128 70 748 858" preserveAspectRatio="xMidYMid meet">
    <g id="eagle" transform="translate(0.000000,1024.000000) scale(0.100000,-0.100000)" fill="#0B1220" fill-rule="evenodd" stroke="none">
    <path d="M1534 9513 c3 -16 13 -68 21 -118 66 -369 219 -767 401 -1040 142
-214 265 -337 409 -412 77 -40 612 -287 1035 -478 1422 -643 2973 -1385 3026
-1448 27 -32 26 -63 -2 -119 l-14 -27 -117 56 c-420 197 -1075 501 -1436 664
-232 105 -672 305 -977 444 -742 338 -1332 604 -1515 682 -383 165 -871 357
-1021 402 l-65 19 6 -21 c56 -195 220 -526 376 -759 189 -281 523 -634 693
-733 29 -17 219 -65 656 -165 573 -132 911 -210 1055 -245 33 -8 202 -48 375
-89 173 -41 416 -100 540 -130 206 -50 377 -90 1010 -236 124 -29 228 -56 233
-59 10 -10 -61 -114 -97 -142 l-29 -23 -216 48 c-119 27 -252 57 -296 67 -44
10 -255 59 -470 108 -612 141 -890 206 -1160 271 -721 175 -2264 515 -2477
545 -45 7 -65 -4 -39 -19 5 -4 62 -75 127 -159 352 -455 544 -653 803 -826
154 -103 317 -183 446 -217 40 -11 321 -14 1470 -15 1575 -2 1630 -4 1672 -35
59 -44 67 -169 16 -227 -10 -11 -187 -132 -393 -270 -773 -517 -3352 -2235
-3449 -2297 -56 -35 -101 -68 -101 -71 0 -13 142 -19 581 -25 515 -8 753 5
886 47 31 10 83 64 338 354 154 175 632 691 753 815 l123 125 -8 -75 c-24
-222 2 -360 91 -484 94 -131 243 -209 480 -251 124 -21 123 -22 87 27 -103
140 -92 336 29 500 146 200 661 652 1005 883 412 277 832 385 1202 309 270
-54 614 -232 768 -395 73 -78 138 -197 151 -277 4 -23 10 -42 14 -42 28 0 130
324 130 413 0 127 -129 422 -195 447 -34 13 -168 36 -460 79 l-250 37 -18 59
c-11 33 -30 96 -43 139 -14 43 -23 80 -22 81 8 7 672 -223 711 -246 30 -17 30
-6 -3 79 -83 215 -294 473 -534 653 -89 67 -509 332 -1001 632 -148 90 -337
206 -420 257 -152 95 -968 592 -1305 795 -102 61 -306 186 -455 277 -461 283
-1342 820 -1510 920 -88 52 -266 159 -395 238 -318 193 -921 553 -1075 641
-69 39 -128 75 -131 80 -12 20 -25 8 -20 -18z"/>
    <path d="M3085 5119 c-677 -8 -1045 -18 -1045 -28 1 -7 257 -219 350 -289 496
-371 1030 -568 1712 -633 70 -6 135 -9 145 -7 10 3 344 222 741 486 l724 482
-1004 -2 c-551 -1 -1282 -5 -1623 -9z"/>
    <path d="M6990 3979 c-257 -44 -438 -317 -375 -564 58 -226 225 -357 455 -357
250 -1 431 149 472 390 53 313 -231 586 -552 531z m215 -31 c305 -78 425 -465
223 -720 -133 -168 -430 -202 -625 -73 -126 83 -200 266 -175 427 42 275 299
438 577 366z"/>
    <path d="M8610 3019 c-127 -86 -236 -170 -550 -429 -344 -284 -766 -553 -1153
-734 -81 -38 -147 -72 -147 -75 0 -8 211 -72 333 -102 l87 -22 113 58 c477
244 860 521 1294 938 115 111 121 123 147 292 21 137 23 165 17 165 -3 0 -67
-41 -141 -91z m120 34 c0 -39 -39 -242 -53 -274 -8 -19 -54 -72 -103 -119
-439 -417 -809 -684 -1281 -925 l-113 -58 -87 22 c-49 12 -134 36 -191 53
l-103 32 158 76 c374 181 770 435 1103 710 303 249 421 342 535 419 129 87
135 90 135 64z"/>
    <path d="M4380 2997 c0 -27 32 -170 61 -277 l21 -79 191 -94 c108 -52 301
-161 440 -246 137 -84 300 -180 362 -212 l114 -60 118 31 c118 31 323 93 372
112 23 9 12 14 -109 52 -256 80 -421 160 -710 341 -263 164 -487 284 -797 426
-63 28 -63 28 -63 6z m242 -110 c193 -92 411 -212 622 -345 239 -149 450 -254
632 -314 74 -23 134 -46 134 -49 0 -6 -174 -59 -343 -104 l-98 -26 -113 59
c-63 33 -226 129 -362 212 -136 84 -329 193 -428 241 -99 49 -184 96 -188 103
-7 13 -57 214 -73 294 l-7 32 54 -24 c29 -13 106 -49 170 -79z"/>
    <path d="M7935 2718 c-549 -83 -880 -202 -1660 -593 -463 -232 -664 -304 -966
-349 -133 -19 -385 -40 -404 -32 -24 9 -17 -1 30 -45 69 -64 163 -138 229
-181 69 -45 69 -45 321 -3 274 46 476 121 895 330 293 147 332 165 605 280
192 81 380 174 501 248 106 64 525 335 539 348 11 11 -6 10 -90 -3z m24 -21
c-13 -11 -464 -300 -514 -329 -97 -58 -288 -150 -460 -223 -273 -115 -312
-133 -605 -280 -419 -209 -621 -284 -895 -330 -261 -43 -251 -43 -336 14 -80
54 -212 161 -206 167 2 2 59 8 128 14 445 36 660 103 1204 375 502 252 709
343 1000 439 192 64 483 133 625 149 19 2 41 5 49 5 8 1 12 0 10 -1z"/>
    <path d="M5995 2710 c-196 -11 -547 -62 -544 -79 0 -3 85 -48 188 -100 l188
-94 349 0 349 0 231 115 232 115 -107 11 c-58 7 -133 14 -166 17 -78 7 -522
25 -555 23 -14 0 -88 -4 -165 -8z m420 -20 c249 -11 365 -18 445 -29 l55 -7
-195 -99 -195 -98 -350 0 -349 0 -163 84 -162 84 54 12 c122 28 314 47 610 61
17 1 129 -3 250 -8z"/>
    <path d="M8410 2288 c-418 -372 -569 -481 -884 -640 l-101 -52 35 -8 c107 -26
538 -17 642 13 79 22 308 332 424 574 56 116 131 312 122 320 -2 1 -109 -92
-238 -207z m180 80 c-114 -314 -398 -735 -507 -752 -149 -24 -394 -33 -536
-19 l-68 6 108 57 c288 152 407 239 818 604 116 102 211 186 212 186 1 0 -11
-37 -27 -82z"/>
    <path d="M4505 2397 c16 -53 119 -252 174 -334 94 -138 97 -141 216 -145 103
-4 371 7 415 18 22 5 19 8 -35 38 -33 17 -144 89 -247 158 -177 121 -329 206
-467 262 l-62 25 6 -22z m190 -85 c91 -45 215 -119 356 -214 l216 -146 -56 -7
c-97 -12 -410 -8 -427 6 -66 54 -276 429 -241 429 7 0 75 -31 152 -68z"/>
    <path d="M6347 1597 c-119 -39 -217 -74 -217 -77 0 -19 322 -160 491 -215 253
-82 409 -110 694 -127 l200 -11 150 74 c120 61 285 154 285 162 0 1 -91 2
-203 3 -349 1 -664 64 -1017 201 -63 25 -126 48 -140 53 -19 5 -81 -11 -243
-63z m383 -10 c329 -128 634 -192 973 -204 l177 -6 -32 -20 c-18 -11 -100 -54
-183 -95 l-150 -75 -200 11 c-285 17 -441 45 -694 127 -162 52 -459 180 -447
192 3 3 91 33 198 68 142 46 199 60 218 55 14 -5 77 -28 140 -53z"/>
    <path d="M5740 1395 c-85 -18 -201 -39 -258 -46 -63 -8 -101 -17 -99 -23 2 -6
84 -52 183 -102 170 -86 355 -157 519 -198 261 -66 601 -77 915 -31 164 24
166 27 43 41 -310 36 -758 186 -1047 349 -43 25 -84 45 -90 44 -6 -1 -81 -16
-166 -34z m256 -30 c256 -144 634 -277 969 -341 l40 -7 -50 -8 c-110 -18 -360
-27 -493 -18 -217 13 -342 39 -576 116 -122 40 -464 198 -454 209 3 2 69 15
149 28 79 14 182 34 229 45 47 11 90 20 96 20 6 1 47 -19 90 -44z"/>
    </g>
    <g id="nest" transform="translate(0.000000,1024.000000) scale(0.100000,-0.100000)" fill="#E6AA48" fill-rule="evenodd" stroke="none">
    <path d="M6990 3959 c-187 -32 -332 -183 -362 -377 -18 -114 16 -247 87 -344
127 -173 427 -215 624 -88 266 172 245 616 -36 758 -99 50 -211 68 -313 51z"/>
    <path d="M8595 2989 c-114 -77 -232 -170 -535 -419 -333 -275 -729 -529 -1103
-710 l-158 -76 103 -32 c57 -17 142 -41 191 -53 l87 -22 113 58 c472 241 842
508 1281 925 102 98 111 114 137 264 21 122 23 146 12 146 -5 0 -62 -37 -128
-81z"/>
    <path d="M4405 2958 c16 -80 66 -281 73 -294 4 -7 89 -54 188 -103 99 -48 292
-157 428 -241 136 -83 299 -179 362 -212 l113 -59 98 26 c169 45 343 98 343
104 0 3 -60 26 -134 49 -182 60 -393 165 -632 314 -263 165 -504 294 -792 424
l-54 24 7 -32z"/>
    <path d="M5995 2689 c-148 -7 -351 -32 -440 -52 l-54 -12 162 -84 163 -84 349
0 350 0 195 98 195 99 -55 7 c-102 14 -616 41 -695 37 -16 0 -93 -4 -170 -9z"/>
    <path d="M7900 2693 c-142 -16 -433 -85 -625 -149 -291 -96 -498 -187 -1000
-439 -544 -272 -759 -339 -1204 -375 -69 -6 -126 -12 -128 -14 -6 -6 126 -113
206 -167 85 -57 75 -57 336 -14 274 46 476 121 895 330 293 147 332 165 605
280 300 127 398 180 745 403 258 166 237 152 219 150 -8 0 -30 -3 -49 -5z"/>
    <path d="M8405 2264 c-411 -365 -530 -452 -818 -604 l-108 -57 68 -6 c142 -14
387 -5 536 19 81 13 293 291 418 548 49 101 124 286 116 286 -1 0 -96 -84
-212 -186z"/>
    <path d="M4556 2323 c55 -126 184 -335 228 -372 17 -14 330 -18 427 -6 l56 7
-216 146 c-194 131 -467 282 -508 282 -9 0 -5 -18 13 -57z"/>
    <path d="M6372 1585 c-107 -35 -195 -65 -198 -68 -12 -12 285 -140 447 -192
253 -82 409 -110 694 -127 l200 -11 150 75 c83 41 165 84 183 95 l32 20 -177
6 c-339 12 -644 76 -973 204 -63 25 -126 48 -140 53 -19 5 -76 -9 -218 -55z"/>
    <path d="M5810 1389 c-47 -11 -150 -31 -229 -45 -80 -13 -146 -26 -149 -28
-10 -11 332 -169 454 -209 234 -77 359 -103 576 -116 133 -9 383 0 493 18 l50
8 -40 7 c-335 64 -713 197 -969 341 -43 25 -84 45 -90 44 -6 0 -49 -9 -96 -20z"/>
    </g>
  </svg>
  <svg x="179.1" y="35.0" width="630.9375" height="228.6" viewBox="46.0 0.0 441.6562 160.0">
  <g transform="translate(40,112)"><g fill="#0B1220"><g transform="translate(0.0000,0) scale(0.046875,-0.046875)"><path d="M135 0H440V487H709C1052 487 1249 692 1249 987C1249 1280 1055 1490 716 1490H135ZM440 733V1238H659C846 1238 934 1137 934 987C934 837 846 733 660 733Z"/></g><g transform="translate(59.2031,0) scale(0.046875,-0.046875)"><path d="M428 1490H128V0H428Z"/></g><g transform="translate(82.2188,0) scale(0.046875,-0.046875)"><path d="M440 -22C605 -22 713 51 767 155H777V0H1061V753C1061 1024 827 1132 587 1132C337 1132 157 1021 100 827L375 781C399 853 470 910 586 910C698 910 761 856 761 761V756C761 683 682 675 490 656C270 635 68 563 68 313C68 92 227 -22 440 -22ZM525 189C426 189 356 234 356 321C356 411 430 454 541 470C607 479 726 495 763 521V400C763 282 665 189 525 189Z"/></g><g transform="translate(134.9531,0) scale(0.046875,-0.046875)"><path d="M428 647C428 795 517 881 645 881C771 881 847 798 847 659V0H1147V711C1147 973 995 1132 763 1132C591 1132 478 1043 415 887L411 1118H128V0H428Z"/></g><g transform="translate(191.7188,0) scale(0.046875,-0.046875)"><path d="M633 -22C893 -22 1071 99 1126 285L854 336C822 250 743 204 638 204C487 204 385 298 378 481H1143V565C1143 947 910 1132 618 1132C291 1132 81 898 81 553C81 200 291 -22 633 -22ZM380 669C392 807 478 906 621 906C760 906 839 815 854 669Z"/></g></g></g>
  <g transform="translate(285.9062,112)"><g fill="#E6AA48"><g transform="translate(0.0000,0) scale(0.046875,-0.046875)"><path d="M135 0H440V487H709C1052 487 1249 692 1249 987C1249 1280 1055 1490 716 1490H135ZM440 733V1238H659C846 1238 934 1137 934 987C934 837 846 733 660 733Z"/></g><g transform="translate(59.2031,0) scale(0.046875,-0.046875)"><path d="M428 1490H128V0H428Z"/></g><g transform="translate(82.2188,0) scale(0.046875,-0.046875)"><path d="M513 -14C683 -14 797 74 860 232L864 0H1148V1118H847V471C847 323 757 237 630 237C504 237 428 320 428 459V1118H128V407C128 145 281 -14 513 -14Z"/></g><g transform="translate(138.9844,0) scale(0.046875,-0.046875)"><path d="M572 -22C865 -22 1072 125 1072 345C1072 504 968 603 752 647L551 687C445 709 407 748 407 804C407 871 483 917 581 917C690 917 753 863 777 787L1043 834C1001 1016 842 1132 577 1132C294 1132 107 1000 107 785C107 618 213 512 429 468L622 428C720 408 766 372 766 313C766 246 695 198 581 198C458 198 386 249 357 354L78 306C117 98 302 -22 572 -22Z"/></g></g></g>
  </svg>
</svg>
